<svg width="20" height="20" viewBox="0 0 20 20" fill="none" xmlns="http://www.w3.org/2000/svg">
<path fill-rule="evenodd" clip-rule="evenodd" d="M9.79163 2.91666C5.99467 2.91666 2.91663 5.9947 2.91663 9.79166C2.91663 13.5886 5.99467 16.6667 9.79163 16.6667C13.5886 16.6667 16.6666 13.5886 16.6666 9.79166C16.6666 5.9947 13.5886 2.91666 9.79163 2.91666ZM1.66663 9.79166C1.66663 5.30434 5.30431 1.66666 9.79163 1.66666C14.2789 1.66666 17.9166 5.30434 17.9166 9.79166C17.9166 14.279 14.2789 17.9167 9.79163 17.9167C5.30431 17.9167 1.66663 14.279 1.66663 9.79166Z" fill="#0D1619"/>
<path fill-rule="evenodd" clip-rule="evenodd" d="M8.54163 9.16665C8.54163 8.82148 8.82145 8.54165 9.16663 8.54165H9.79163C10.1368 8.54165 10.4166 8.82148 10.4166 9.16665V12.9167C10.7618 12.9167 11.0416 13.1965 11.0416 13.5417C11.0416 13.8868 10.7618 14.1667 10.4166 14.1667H9.79163C9.44645 14.1667 9.16663 13.8868 9.16663 13.5417V9.79165C8.82145 9.79165 8.54163 9.51183 8.54163 9.16665Z" fill="#0D1619"/>
<path d="M9.63538 7.29166C10.1531 7.29166 10.5729 6.87192 10.5729 6.35416C10.5729 5.83639 10.1531 5.41666 9.63538 5.41666C9.11761 5.41666 8.69788 5.83639 8.69788 6.35416C8.69788 6.87192 9.11761 7.29166 9.63538 7.29166Z" fill="#0D1619"/>
</svg>
