<svg width="20" height="20" viewBox="0 0 20 20" fill="none" xmlns="http://www.w3.org/2000/svg">
<path fill-rule="evenodd" clip-rule="evenodd" d="M13.125 2.5C12.9592 2.5 12.7951 2.53297 12.6422 2.59699C12.4902 2.66065 12.3523 2.75374 12.2364 2.8709L2.86165 12.2456C2.74644 12.3614 2.65519 12.4988 2.59314 12.6499C2.53085 12.8015 2.5 12.9609 2.5 13.124V16.6161C2.5 16.9477 2.6317 17.2656 2.86612 17.5C3.10054 17.7344 3.41848 17.8661 3.75 17.8661H7.24219C7.44476 17.8661 7.57825 17.8297 7.71628 17.773C7.86737 17.7109 8.00475 17.6197 8.12053 17.5045L17.4953 8.12971C17.6124 8.01382 17.7055 7.87592 17.7692 7.72391C17.8332 7.57101 17.8661 7.40691 17.8661 7.24114C17.8661 7.07538 17.8332 6.91127 17.7692 6.75837C17.7055 6.60636 17.6124 6.46844 17.4953 6.35254L14.0136 2.87085C13.8977 2.75371 13.7598 2.66064 13.6078 2.59699C13.4549 2.53297 13.2908 2.5 13.125 2.5ZM10.625 6.25003L3.75 13.125V16.6161H7.24112L14.1161 9.74114L10.625 6.25003ZM11.5089 5.36614L15 8.85726L16.6127 7.23777L13.1216 3.7534L11.5089 5.36614Z" fill="#0D1619"/>
</svg>
