<svg width="20" height="20" viewBox="0 0 20 20" fill="none" xmlns="http://www.w3.org/2000/svg">
<path fill-rule="evenodd" clip-rule="evenodd" d="M10 8.4375C8.61933 8.4375 7.50004 9.55679 7.50004 10.9375C7.50004 12.3182 8.61933 13.4375 10 13.4375C11.3807 13.4375 12.5 12.3182 12.5 10.9375C12.5 9.55679 11.3807 8.4375 10 8.4375ZM6.25004 10.9375C6.25004 8.86643 7.92897 7.1875 10 7.1875C12.0711 7.1875 13.75 8.86643 13.75 10.9375C13.75 12.1533 13.1715 13.234 12.2746 13.9192C12.5188 14.0269 12.7559 14.1523 12.9839 14.2947C13.8788 14.8537 14.5987 15.6527 15.0617 16.6008C15.2131 16.9109 15.0845 17.2852 14.7743 17.4366C14.4641 17.5881 14.0899 17.4594 13.9384 17.1492C13.5782 16.4115 13.0181 15.7898 12.3218 15.355C11.6255 14.9201 10.821 14.6895 10.0001 14.6895C9.17912 14.6895 8.37467 14.9201 7.67837 15.355C6.98207 15.7898 6.4219 16.4115 6.06169 17.1492C5.91023 17.4594 5.53601 17.5881 5.22583 17.4366C4.91566 17.2852 4.78699 16.9109 4.93845 16.6008C5.40139 15.6527 6.12132 14.8537 7.01621 14.2947C7.24426 14.1523 7.48133 14.0269 7.72548 13.9192C6.82863 13.234 6.25004 12.1533 6.25004 10.9375Z" fill="#0D1619"/>
<path d="M4.10472 4.77953C4.44313 4.66941 4.80589 4.65786 5.15061 4.74625C5.49534 4.83463 5.80779 5.01929 6.05146 5.27866C6.29514 5.53802 6.45996 5.86137 6.52669 6.21094C6.59141 6.54999 6.91874 6.77239 7.25779 6.70766C7.59685 6.64294 7.81924 6.31562 7.75452 5.97656C7.64331 5.39396 7.3686 4.85503 6.96247 4.42276C6.55635 3.99049 6.0356 3.68272 5.46106 3.53541C4.88652 3.3881 4.28192 3.40735 3.71791 3.59089C3.1539 3.77443 2.65377 4.11469 2.27596 4.57192C1.89815 5.02914 1.65826 5.58444 1.58432 6.17294C1.51038 6.76144 1.60545 7.35882 1.85841 7.8953C2.03337 8.26634 2.27887 8.59765 2.57941 8.87169C2.48889 8.91079 2.39934 8.95247 2.31089 8.9967C1.57271 9.36579 0.93099 9.90226 0.436911 10.5633C0.230266 10.8398 0.286886 11.2315 0.563375 11.4381C0.839863 11.6448 1.23152 11.5881 1.43816 11.3117C1.81565 10.8066 2.30593 10.3967 2.8699 10.1147C3.43146 9.83396 4.06041 9.68771 4.68817 9.6875C5.03302 9.68715 5.31242 9.40755 5.31254 9.0627C5.31265 8.71785 5.03343 8.43808 4.68858 8.4375C4.33523 8.43648 3.98027 8.33563 3.6817 8.14652C3.38105 7.95611 3.14081 7.68406 2.98903 7.36218C2.83725 7.04029 2.78021 6.68186 2.82457 6.32876C2.86893 5.97567 3.01287 5.64249 3.23955 5.36815C3.46624 5.09382 3.76632 4.88966 4.10472 4.77953Z" fill="#0D1619"/>
<path d="M14.8494 4.74625C15.1941 4.65786 15.5569 4.66941 15.8953 4.77953C16.2337 4.88966 16.5337 5.09382 16.7604 5.36815C16.9871 5.64249 17.1311 5.97567 17.1754 6.32876C17.2198 6.68186 17.1627 7.04029 17.011 7.36218C16.8592 7.68406 16.6189 7.95611 16.3183 8.14652C16.0194 8.33586 15.6652 8.43671 15.3115 8.4375C14.9666 8.43808 14.6874 8.71785 14.6875 9.0627C14.6877 9.40755 14.9671 9.68715 15.3119 9.6875C15.9397 9.68771 16.5686 9.83396 17.1302 10.1147C17.6941 10.3967 18.1844 10.8066 18.5619 11.3117C18.7686 11.5881 19.1602 11.6448 19.4367 11.4381C19.7132 11.2315 19.7698 10.8398 19.5632 10.5633C19.0691 9.90226 18.4274 9.36579 17.6892 8.9967C17.6007 8.95246 17.5112 8.91078 17.4206 8.87167C17.7211 8.59763 17.9666 8.26633 18.1416 7.8953C18.3945 7.35882 18.4896 6.76144 18.4157 6.17294C18.3417 5.58444 18.1018 5.02914 17.724 4.57192C17.3462 4.11469 16.8461 3.77443 16.2821 3.59089C15.7181 3.40735 15.1135 3.3881 14.5389 3.53541C13.9644 3.68272 13.4436 3.99049 13.0375 4.42276C12.6314 4.85503 12.3567 5.39396 12.2455 5.97656C12.1807 6.31562 12.4031 6.64294 12.7422 6.70766C13.0813 6.77239 13.4086 6.54999 13.4733 6.21094C13.54 5.86137 13.7049 5.53802 13.9485 5.27866C14.1922 5.01929 14.5047 4.83463 14.8494 4.74625Z" fill="#0D1619"/>
</svg>
