<svg width="20" height="20" viewBox="0 0 20 20" fill="none" xmlns="http://www.w3.org/2000/svg">
<path fill-rule="evenodd" clip-rule="evenodd" d="M1.875 4.375C1.875 4.02982 2.15482 3.75 2.5 3.75H17.5C17.8452 3.75 18.125 4.02982 18.125 4.375V15C18.125 15.3315 17.9933 15.6495 17.7589 15.8839C17.5245 16.1183 17.2065 16.25 16.875 16.25H3.125C2.79348 16.25 2.47554 16.1183 2.24112 15.8839C2.0067 15.6495 1.875 15.3315 1.875 15V4.375ZM4.10675 5L10 10.4021L15.8932 5H4.10675ZM16.875 5.79577L10.4223 11.7107C10.1834 11.9298 9.81662 11.9298 9.57767 11.7107L3.125 5.79577V15H16.875V5.79577Z" fill="#0D1619"/>
</svg>
