<svg width="20" height="20" viewBox="0 0 20 20" fill="none" xmlns="http://www.w3.org/2000/svg">
<path fill-rule="evenodd" clip-rule="evenodd" d="M10 3.125C6.20304 3.125 3.125 6.20304 3.125 10C3.125 13.797 6.20304 16.875 10 16.875C13.797 16.875 16.875 13.797 16.875 10C16.875 6.20304 13.797 3.125 10 3.125ZM1.875 10C1.875 5.51269 5.51269 1.875 10 1.875C14.4873 1.875 18.125 5.51269 18.125 10C18.125 14.4873 14.4873 18.125 10 18.125C5.51269 18.125 1.875 14.4873 1.875 10ZM10.6074 6.01145C10.8106 6.12021 10.9375 6.332 10.9375 6.5625V13.75C10.9375 14.0952 10.6577 14.375 10.3125 14.375C9.96732 14.375 9.6875 14.0952 9.6875 13.75V7.73032L8.78419 8.33253C8.49698 8.524 8.10894 8.44639 7.91747 8.15919C7.726 7.87198 7.80361 7.48394 8.09081 7.29247L9.96581 6.04247C10.1576 5.91461 10.4042 5.90269 10.6074 6.01145Z" fill="#0D1619"/>
</svg>
