<svg width="20" height="20" viewBox="0 0 20 20" fill="none" xmlns="http://www.w3.org/2000/svg">
<path fill-rule="evenodd" clip-rule="evenodd" d="M9.15721 2.42078C9.38752 2.21052 9.68812 2.09393 10 2.09393C10.3119 2.09393 10.6126 2.21055 10.8429 2.42086C10.8432 2.42113 10.8435 2.4214 10.8438 2.42166L17.0922 8.09994C17.0952 8.10263 17.0981 8.10535 17.101 8.1081C17.2245 8.22474 17.3234 8.36492 17.392 8.52039C17.4605 8.67585 17.4972 8.84345 17.4999 9.01331C17.5 9.01668 17.5 9.02005 17.5 9.02342V16.25C17.5 16.5815 17.3683 16.8994 17.1339 17.1339C16.8995 17.3683 16.5815 17.5 16.25 17.5H3.75C3.41848 17.5 3.10054 17.3683 2.86612 17.1339C2.6317 16.8994 2.5 16.5815 2.5 16.25V9.02342C2.5 9.02005 2.50003 9.01668 2.50008 9.01331C2.50283 8.84345 2.53954 8.67585 2.60805 8.52039C2.67656 8.36493 2.77548 8.22474 2.89899 8.1081C2.9019 8.10535 2.90483 8.10263 2.90779 8.09994L9.15625 2.42166C9.15657 2.42137 9.15689 2.42108 9.15721 2.42078ZM3.75592 9.01824L9.99846 3.34534L10 3.34393L10.0015 3.34534L16.2441 9.01825C16.2457 9.02009 16.2471 9.02219 16.2481 9.02446C16.2491 9.02683 16.2498 9.02935 16.25 9.03192V16.25H3.75V9.03192C3.75022 9.02935 3.75086 9.02683 3.75191 9.02446C3.75291 9.02218 3.75426 9.02009 3.75592 9.01824Z" fill="#0D1619"/>
</svg>
